# xmcd
#
# Track frame offsets: 
#        182
#        13845
#        29392
#        48995
#        64032
#        85977
#        99900
#        112890
#        129620
#        143145
#
# Disc length: 2139 seconds
#
# Revision: 1
# Processed by: cddbd v1.5.2PL0 Copyright (c) Steve Scherf et al.
# Submitted via: ExactAudioCopy v1.3
#
DISCID=7e08590a
DTITLE=Brooks and Dunn - Waitin' On Sundown
DYEAR=1994
DGENRE=Country
TTITLE0=Little Miss Honky Tonk
TTITLE1=She's Not The Cheatin' Kind
TTITLE2=Silver and Gold
TTITLE3=I'll Never Forgive My Heart
TTITLE4=You're Gonna Miss Me When I'm Gone
TTITLE5=My Kind of Crazy
TTITLE6=Whiskey Under The Bridge
TTITLE7=If That's The Way You Want It
TTITLE8=She's The Kind of Trouble
TTITLE9=A Few Good Rides Away
EXTD=
EXTT0=
EXTT1=
EXTT2=
EXTT3=
EXTT4=
EXTT5=
EXTT6=
EXTT7=
EXTT8=
EXTT9=
PLAYORDER=
